<?xml version="1.0" standalone="no"?>
<!DOCTYPE svg PUBLIC "-//W3C//DTD SVG 1.1//EN"
"http://www.w3.org/Graphics/SVG/1.1/DTD/svg11.dtd">

<svg width="321" height="195" view_box="0 0 321 195"
xmlns="http://www.w3.org/2000/svg"
xmlns:link="http://www.w3.org/1999/xlink">\n\n<desc>Généré par Mocodo 2.3.7 le Mon, 11 Oct 2021 06:10:45</desc>

<rect id="frame" x="0" y="0" width="321" height="195" fill="#ffffbf" stroke="none" stroke-width="0"/>

<!-- Association TEACH -->
<line x1="268" y1="51" x2="268" y2="152" stroke="#66c2a5" stroke-width="2"/>
<text x="273.0" y="102" fill="#d53e4f" font-family="Verdana" font-size="12">1,1</text>
<line x1="167" y1="152" x2="268" y2="152" stroke="#66c2a5" stroke-width="2"/>
<text x="213" y="169.0" fill="#d53e4f" font-family="Verdana" font-size="12">1,N</text>
<g id="association-TEACH">
	<path d="M 282 127 a 14 14 90 0 1 14 14 V 152 h -56 V 141 a 14 14 90 0 1 14 -14" fill="#abdda4" stroke="#abdda4" stroke-width="0"/>
	<path d="M 296 152.0 v 11 a 14 14 90 0 1 -14 14 H 254 a 14 14 90 0 1 -14 -14 V 152.0 H 56" fill="#e6f598" stroke="#e6f598" stroke-width="0"/>
	<rect x="240" y="127" width="56" height="50" fill="none" rx="14" stroke="#66c2a5" stroke-width="2"/>
	<line x1="240" y1="152" x2="296" y2="152" stroke="#66c2a5" stroke-width="1"/>
	<text x="247" y="144.7" fill="#000000" font-family="Verdana" font-size="12">TEACH</text>
</g>

<!-- Association PRACTICE -->
<line x1="56" y1="51" x2="56" y2="152" stroke="#66c2a5" stroke-width="2"/>
<text x="61.0" y="110" fill="#d53e4f" font-family="Verdana" font-size="12">1,N</text>
<line x1="167" y1="152" x2="56" y2="152" stroke="#66c2a5" stroke-width="2"/>
<text x="99" y="169.0" fill="#d53e4f" font-family="Verdana" font-size="12">1,N</text>
<g id="association-PRACTICE">
	<path d="M 80 127 a 14 14 90 0 1 14 14 V 152 h -76 V 141 a 14 14 90 0 1 14 -14" fill="#abdda4" stroke="#abdda4" stroke-width="0"/>
	<path d="M 94 152.0 v 11 a 14 14 90 0 1 -14 14 H 32 a 14 14 90 0 1 -14 -14 V 152.0 H 76" fill="#e6f598" stroke="#e6f598" stroke-width="0"/>
	<rect x="18" y="127" width="76" height="50" fill="none" rx="14" stroke="#66c2a5" stroke-width="2"/>
	<line x1="18" y1="152" x2="94" y2="152" stroke="#66c2a5" stroke-width="1"/>
	<text x="25" y="144.7" fill="#000000" font-family="Verdana" font-size="12">PRACTICE</text>
</g>

<!-- Entity ACTIVITIES -->
<g id="entity-ACTIVITIES">
	<g id="frame-ACTIVITIES">
		<rect x="126" y="118" width="82" height="25" fill="#fdae61" stroke="#fdae61" stroke-width="0"/>
		<rect x="126" y="143.0" width="82" height="43" fill="#fee08b" stroke="#fee08b" stroke-width="0"/>
		<rect x="126" y="118" width="82" height="68" fill="none" stroke="#f46d43" stroke-width="2"/>
		<line x1="126" y1="143" x2="208" y2="143" stroke="#f46d43" stroke-width="1"/>
	</g>
	<text x="131" y="135.7" fill="#000000" font-family="Verdana" font-size="12">ACTIVITIES</text>
	<text x="131" y="160.8" fill="#000000" font-family="Verdana" font-size="12">name</text>
	<line x1="131" y1="163" x2="166" y2="163" stroke="#000000" stroke-width="1"/>
	<text x="131" y="177.8" fill="#000000" font-family="Verdana" font-size="12">type</text>
</g>

<!-- Entity MEMBERS -->
<g id="entity-MEMBERS">
	<g id="frame-MEMBERS">
		<rect x="9" y="9" width="94" height="25" fill="#fdae61" stroke="#fdae61" stroke-width="0"/>
		<rect x="9" y="34.0" width="94" height="59" fill="#fee08b" stroke="#fee08b" stroke-width="0"/>
		<rect x="9" y="9" width="94" height="84" fill="none" stroke="#f46d43" stroke-width="2"/>
		<line x1="9" y1="34" x2="103" y2="34" stroke="#f46d43" stroke-width="1"/>
	</g>
	<text x="25" y="26.7" fill="#000000" font-family="Verdana" font-size="12">MEMBERS</text>
	<text x="14" y="51.8" fill="#000000" font-family="Verdana" font-size="12">first_name</text>
	<line x1="14" y1="54" x2="80" y2="54" stroke="#000000" stroke-width="1"/>
	<text x="14" y="68.8" fill="#000000" font-family="Verdana" font-size="12">last_name</text>
	<text x="14" y="85.8" fill="#000000" font-family="Verdana" font-size="12">date_of_birth</text>
</g>

<!-- Entity COACHS -->
<g id="entity-COACHS">
	<g id="frame-COACHS">
		<rect x="224" y="17" width="88" height="25" fill="#fdae61" stroke="#fdae61" stroke-width="0"/>
		<rect x="224" y="42.0" width="88" height="43" fill="#fee08b" stroke="#fee08b" stroke-width="0"/>
		<rect x="224" y="17" width="88" height="68" fill="none" stroke="#f46d43" stroke-width="2"/>
		<line x1="224" y1="42" x2="312" y2="42" stroke="#f46d43" stroke-width="1"/>
	</g>
	<text x="241" y="34.7" fill="#000000" font-family="Verdana" font-size="12">COACHS</text>
	<text x="229" y="59.8" fill="#000000" font-family="Verdana" font-size="12">name_coach</text>
	<line x1="229" y1="62" x2="306" y2="62" stroke="#000000" stroke-width="1"/>
	<text x="229" y="76.8" fill="#000000" font-family="Verdana" font-size="12">speciality</text>
</g>
</svg>